<svg width="130" height="60" viewBox="0 0 130 60" fill="none" xmlns="http://www.w3.org/2000/svg">
<path d="M94.722 5.9276C96.5973 4.75382 98.668 4.16692 100.797 3.77566C106.599 2.73882 112.049 3.7561 116.972 6.94488C119.98 8.90119 122.207 11.6009 123.731 14.9071C125.371 18.4871 125.918 22.2628 125.957 26.1754C125.957 26.7819 125.821 27.0362 125.157 27.0362C116.64 27.0166 108.103 27.0362 99.5861 27.0362C99.5275 27.0362 99.4493 27.0166 99.3907 27.0166C99.3712 26.3906 99.84 25.882 99.7424 25.2364C99.508 23.6126 99.1759 21.9889 99.1954 20.3456C99.2149 19.7978 99.0001 19.6022 98.4531 19.6022C97.1834 19.6022 95.9332 19.5631 94.6634 19.5435C94.9955 19.2305 95.4057 19.3674 95.7769 19.3674C101.793 19.3674 107.81 19.4066 113.827 19.387C114.51 19.387 115.546 19.7587 115.839 19.1914C116.21 18.448 115.526 17.5676 115.077 16.9025C112.283 12.6964 108.22 11.3075 103.356 11.8161C102.536 11.8943 101.657 12.0313 100.914 12.3639C99.6252 12.9703 98.375 13.655 97.2615 14.5354C97.7499 13.8115 97.7499 13.0681 97.5741 12.1878C97.2615 10.5641 96.402 9.11639 96.109 7.47309C96.0113 6.80794 95.7769 5.9276 94.722 5.9276ZM94.976 17.8611C95.4839 16.8829 96.0504 15.9048 96.8513 15.1027C96.9099 15.044 96.9685 14.9853 97.0271 14.9071L97.0466 14.8875C97.1052 14.8288 97.1638 14.7701 97.2224 14.7114C97.242 14.6527 97.2615 14.6136 97.281 14.5549C97.7694 13.8311 97.7694 13.0877 97.5936 12.2074C97.281 10.5836 96.4215 9.13595 96.1285 7.49265C96.0113 6.80794 95.7769 5.90804 94.7025 5.90804C93.843 6.41668 92.9835 6.94488 92.1826 7.55134C90.3463 8.94032 88.9008 10.6619 87.6115 12.5399C86.5176 14.1441 85.6972 15.8657 85.1697 17.7241C84.3298 20.6195 84.1344 23.5931 84.3493 26.5862C84.486 28.386 84.7986 30.1467 85.4237 31.8096C87.7287 37.9524 91.9286 42.1584 98.2382 44.1148C99.6838 44.5647 101.149 44.9951 102.692 44.9755C102.829 43.5279 102.419 42.178 102.008 40.789C101.54 39.1457 100.895 37.5416 100.739 35.82C100.094 35.5266 99.4298 35.2722 98.8243 34.9005C96.0699 33.2572 94.6048 30.714 93.8235 27.6818C93.6672 27.0949 93.9211 27.0166 94.39 27.0166C96.0504 27.0166 97.6913 26.997 99.3517 26.9775C99.3321 26.3515 99.801 25.8428 99.7033 25.1972C99.4689 23.5735 99.1368 21.9498 99.1563 20.3065C99.1759 19.7587 98.961 19.5631 98.414 19.5631C97.1443 19.5631 95.8941 19.5239 94.6244 19.5044C94.0188 18.8588 94.7416 18.3306 94.976 17.8611ZM109.9 44.819C115.135 43.9191 119.453 41.4933 122.637 37.1503C123.047 36.583 122.91 36.446 122.383 36.1917C120.175 35.1744 117.948 34.1963 115.78 33.0812C115.038 32.7095 114.608 32.9442 114.1 33.3746C112.029 35.1744 109.588 36.0743 106.892 36.446C104.763 36.7395 102.77 36.3091 100.758 35.82C100.914 37.5416 101.559 39.1457 102.028 40.789C102.419 42.178 102.829 43.5083 102.712 44.9755C105.114 45.0538 107.517 45.2299 109.9 44.819Z" fill="white"/>
<path d="M8.73186 56.4004C6.8175 56.4004 6.8175 56.4004 6.8175 54.6984C6.8175 53.2312 6.85656 51.7639 6.79796 50.2967C6.77843 49.6316 6.99331 49.4751 7.6184 49.4946C9.14208 49.5337 10.6658 49.3772 11.9941 50.4336C12.9708 51.2162 13.1662 52.1943 13.0685 53.329C12.9513 54.5615 12.4434 55.5201 11.1932 55.9896C10.3532 56.3026 9.4937 56.4982 8.73186 56.4004ZM8.20443 52.8986C8.20443 53.192 8.2435 53.4855 8.20443 53.7789C8.04816 54.7375 8.32164 55.0897 9.39603 55.0897C10.9002 55.0701 11.9941 53.9746 11.6815 52.4878C11.4471 51.3335 10.3532 50.7075 8.7514 50.9032C7.59887 51.0597 8.49745 52.0183 8.22397 52.5269C8.14583 52.6052 8.20443 52.7617 8.20443 52.8986Z" fill="white"/>
<path d="M86.1269 54.3267C86.0293 55.1483 86.2246 56.1069 85.9316 57.0851C85.4042 58.8458 82.3568 58.924 81.341 58.1806C81.1066 58.0045 81.0675 57.848 81.2434 57.5546C81.5559 57.0264 82.1029 57.0068 82.3959 57.2416C82.9428 57.6524 83.3921 57.4372 83.9196 57.3198C84.5056 57.1829 84.6033 56.7329 84.7205 56.283C84.7595 56.1461 84.7791 55.9309 84.5837 55.8722C84.447 55.833 84.2517 55.8526 84.1344 55.9113C83.1577 56.4004 82.2982 56.3417 81.634 55.7157C80.9503 55.0505 80.7355 53.7007 81.2043 52.7616C81.8489 51.4118 83.0015 51.0401 84.3298 51.803C84.5837 51.9595 84.7205 52.1747 84.9158 51.6857C85.0721 51.314 85.5605 51.49 85.8925 51.5292C86.3223 51.5878 86.1269 51.9987 86.1465 52.253C86.1465 52.879 86.1269 53.5246 86.1269 54.3267ZM84.8181 53.9354C84.8377 53.192 84.2712 52.6834 83.4898 52.6443C82.5912 52.5856 82.3568 53.2116 82.3373 53.8572C82.3177 54.5419 82.7475 55.0114 83.4898 55.0114C84.2321 55.0114 84.7205 54.6788 84.8181 53.9354Z" fill="white"/>
<path d="M20.2181 55.9895C18.8116 56.7525 17.5419 56.4982 16.8582 55.3831C16.1745 54.2876 16.5456 52.6247 17.6982 51.8617C18.4405 51.3727 19.2414 51.4313 19.9446 51.9791C20.2181 52.1943 20.3353 52.3704 20.5111 51.8617C20.6478 51.4509 21.1362 51.6857 21.4683 51.7052C21.8004 51.7248 21.6832 52.0574 21.6832 52.253C21.6832 53.5833 21.7222 54.9136 21.6636 56.2634C21.6246 57.1438 21.4683 58.0241 20.5111 58.4545C19.2804 58.9827 18.0693 58.9631 16.8777 58.3176C16.487 58.1219 16.7214 57.8872 16.8777 57.6915C17.0926 57.3981 17.2098 56.8894 17.7568 57.2416C18.1279 57.4763 18.5186 57.5546 18.9483 57.5546C19.9641 57.5155 20.2767 57.1633 20.2181 55.9895ZM19.1828 55.2461C19.8665 55.2657 20.4134 54.7179 20.4134 54.0332C20.4134 53.4072 19.8079 52.7616 19.1828 52.8203C18.5186 52.879 17.9326 53.0942 17.9521 53.955C17.9716 54.7179 18.4405 55.2266 19.1828 55.2461Z" fill="white"/>
<path d="M56.2003 48.8686C56.2003 49.8663 56.2003 50.8836 56.2003 51.8617C56.3761 51.8813 56.4542 51.9204 56.4933 51.8813C58.1928 50.8445 59.482 51.5096 59.5602 53.505C59.5797 54.1897 59.5211 54.8745 59.5797 55.5592C59.6188 56.1265 59.3453 56.2047 58.8765 56.1852C58.4272 56.1852 58.1537 56.1265 58.1537 55.5592C58.1537 54.8158 58.2514 54.0724 58.0365 53.329C57.8998 52.8399 57.7239 52.5856 57.1965 52.6051C56.6496 52.6051 56.3956 52.9377 56.337 53.3681C56.2393 53.9354 56.2393 54.5419 56.2784 55.1092C56.3565 56.0874 55.9268 56.3417 55.0477 56.1069C55.0477 54.0919 55.1063 52.0769 55.0477 50.0815C55.0087 49.1816 55.2626 48.7708 56.2003 48.8686Z" fill="white"/>
<path d="M80.1104 53.8963C80.3057 55.1875 78.6062 56.4395 77.3951 56.3808C76.0277 56.3221 74.758 55.1679 74.797 53.8963C74.8361 52.6443 75.9495 51.3531 77.2193 51.4509C79.0946 51.5879 80.0127 52.0965 80.1104 53.8963ZM77.317 52.6638C76.3793 52.4878 76.3012 53.2898 76.2621 53.9159C76.223 54.6397 76.7114 55.1483 77.4732 55.1679C78.2155 55.1679 78.6844 54.7962 78.7039 53.9745C78.7039 53.0942 78.2937 52.6638 77.317 52.6638Z" fill="white"/>
<path d="M66.1824 53.8376C66.2019 52.4682 67.4521 51.2944 68.8781 51.3727C69.972 51.4313 71.6325 52.5269 71.4762 53.9354C71.3199 55.4418 70.2846 56.3612 68.7609 56.3808C67.2763 56.3612 65.987 55.1092 66.1824 53.8376ZM70.0893 54.0332C70.0893 53.1529 69.5618 52.5856 68.8391 52.5856C67.9795 52.6051 67.6475 53.1138 67.5889 53.8963C67.5498 54.6006 68.1358 55.207 68.8586 55.1483C69.5814 55.1092 70.0306 54.6788 70.0893 54.0332Z" fill="white"/>
<path d="M33.9703 54.6984C33.9703 55.031 33.9312 55.344 33.9703 55.6765C34.068 56.3221 33.7163 56.596 33.2084 56.3612C32.3294 55.97 31.5676 56.4786 30.7667 56.4982C30.122 56.5177 29.6141 56.1265 29.4774 55.4613C29.282 54.6201 29.7509 53.8376 30.5322 53.6615C31.0401 53.5442 31.5676 53.5246 32.0755 53.4463C32.2513 53.4268 32.4857 53.5246 32.5833 53.2898C32.681 53.0355 32.5052 52.8595 32.3294 52.7029C31.8606 52.3312 31.3527 52.3312 30.9034 52.7029C30.4736 53.0942 30.2197 52.9181 29.9853 52.5269C29.6727 52.0378 30.1806 51.9791 30.415 51.8813C32.2122 51.1183 33.9703 51.6661 33.9703 54.0137C33.9703 54.2484 33.9703 54.4832 33.9703 54.6984ZM31.4699 55.5983C32.1145 55.5983 32.5247 55.4027 32.6029 54.8158C32.681 54.2484 32.2122 54.3658 31.9582 54.4245C31.5676 54.5223 30.9034 54.1311 30.8448 54.9723C30.8057 55.4809 31.0987 55.6179 31.4699 55.5983Z" fill="white"/>
<path d="M94.3509 55.52C92.7686 57.2416 90.1706 56.0482 89.8971 54.5614C89.7017 53.5246 90.4245 51.8813 91.2645 51.6661C93.3742 51.1183 94.2337 51.9791 94.6635 53.2898C94.8588 53.8767 94.8197 54.3658 93.9407 54.2875C93.2374 54.2289 92.5147 54.268 91.7919 54.268C91.6161 54.268 91.3817 54.2093 91.2645 54.4245C91.1668 54.6397 91.3426 54.894 91.4403 54.9331C91.9091 55.0896 92.2412 55.9113 92.9054 55.207C93.4914 54.581 93.9602 54.9918 94.3509 55.52ZM92.2217 53.4855C92.5537 53.2703 93.2374 53.7593 93.2374 53.1333C93.2374 52.4682 92.5928 52.3704 92.0263 52.3312C91.4794 52.2921 91.2645 52.8008 91.284 53.1138C91.284 53.818 91.9286 53.2311 92.2217 53.4855Z" fill="white"/>
<path d="M60.6932 53.8376C60.6932 53.3094 60.6932 52.8008 60.6932 52.2726C60.6932 51.5292 61.3183 51.0988 61.8262 51.5683C62.2169 51.94 62.4317 51.7248 62.6857 51.6465C64.2289 51.1966 65.1665 51.8813 65.2056 53.505C65.2252 54.131 65.2056 54.7375 65.2056 55.3635C65.2056 55.8135 65.3033 56.2243 64.561 56.2439C63.8382 56.2439 63.7991 55.9113 63.7991 55.3635C63.7991 54.6788 63.8968 54.0137 63.721 53.329C63.5843 52.8594 63.3694 52.5856 62.842 52.6443C62.3145 52.7029 62.0997 52.9964 62.0997 53.4855C62.0997 54.2093 62.0606 54.9136 62.0997 55.6374C62.1387 56.2634 61.7871 56.2047 61.3769 56.2243C60.9276 56.2439 60.6346 56.1656 60.6736 55.5983C60.7323 55.0114 60.6932 54.4245 60.6932 53.8376Z" fill="white"/>
<path d="M47.3513 54.268C47.0973 54.268 46.8239 54.2289 46.5699 54.268C46.2769 54.3071 45.8667 54.0528 45.7299 54.4832C45.6323 54.8158 45.9839 55.0114 46.2183 55.1288C46.4918 55.2657 46.648 55.833 47.1559 55.344C47.5466 54.9527 48.0741 54.6006 48.621 55.2461C48.7968 55.4613 48.8359 55.5787 48.6015 55.7743C47.5857 56.6156 45.6713 56.4982 44.8704 55.5005C43.9914 54.4049 44.05 52.6443 45.2416 51.94C46.1402 51.4118 47.1169 51.3922 48.035 51.7248C48.6796 51.9595 48.9336 52.6051 49.0312 53.2898C49.1484 54.0332 48.9336 54.4049 48.1327 54.268C47.8787 54.2289 47.6052 54.268 47.3513 54.268ZM46.5894 52.3312C46.0425 52.0965 46.0425 52.7029 45.7885 52.9181C45.6323 53.0746 45.7495 53.5246 45.769 53.505C46.3355 53.2311 46.9215 53.7593 47.449 53.4659C47.8592 53.2507 47.6834 52.9181 47.4685 52.6638C47.2536 52.3899 46.9215 52.3508 46.5894 52.3312Z" fill="white"/>
<path d="M41.3737 53.3877C41.3737 52.7616 41.3346 52.1552 41.3737 51.5292C41.4323 50.7858 41.237 50.4532 40.4165 50.5119C40.1821 50.5314 39.5765 50.9618 39.5375 50.1402C39.5179 49.4359 39.7914 49.2794 40.4361 49.299C41.6472 49.3577 42.8388 49.3185 44.0499 49.299C44.5187 49.299 44.8508 49.299 44.8508 49.9445C44.8313 50.5314 44.5383 50.5706 44.1085 50.551C42.5848 50.4923 42.7997 50.5314 42.7997 51.9595C42.7997 53.1725 42.7802 54.3658 42.7997 55.5787C42.8192 56.1265 42.6044 56.2243 42.116 56.2243C41.6277 56.2243 41.3151 56.1852 41.3542 55.5592C41.4128 54.8158 41.3737 54.1115 41.3737 53.3877Z" fill="white"/>
<path d="M26.9183 50.3554C26.8987 50.3554 27.2699 50.3945 27.2699 50.4336C27.2504 51.4118 27.9731 51.6465 28.6568 52.0182C28.8326 52.1161 28.8912 52.8594 28.2466 52.7812C27.4652 52.7029 27.3871 53.0942 27.4457 53.7007C27.4652 53.8963 27.4457 54.0919 27.4262 54.2876C27.3285 54.9723 27.4262 55.5005 28.2661 55.5787C28.5201 55.5983 28.7154 55.7352 28.6764 56.0091C28.6568 56.2047 28.481 56.3026 28.2661 56.3612C26.8597 56.8112 26.0978 56.283 26.0783 54.7962C26.0783 54.3658 26.0588 53.955 26.0783 53.5246C26.0978 53.0942 26.0783 52.7225 25.4923 52.7812C25.082 52.8203 25.0234 52.5464 25.0234 52.2139C25.0234 51.9204 25.0234 51.5878 25.4727 51.6465C26.0588 51.7248 26.1174 51.3531 26.0783 50.9227C26.0588 50.4923 26.2736 50.2967 26.9183 50.3554Z" fill="white"/>
<path d="M97.2811 56.3612C96.8318 56.4395 96.4606 56.3025 96.109 56.1656C95.8746 56.0873 95.4253 56.0287 95.6011 55.6374C95.6988 55.3831 95.8941 55.0896 96.3434 55.1288C96.6364 55.1679 96.8904 55.2853 97.1834 55.3244C97.5155 55.3831 97.9062 55.3048 98.0038 54.9723C98.121 54.5419 97.6327 54.6201 97.4178 54.4832C97.1639 54.3462 96.8708 54.3071 96.5974 54.2289C96.0895 54.0724 95.7183 53.7985 95.6206 53.2116C95.5034 52.4877 95.7574 51.94 96.402 51.5878C97.1053 51.2357 97.8476 51.2944 98.5703 51.5291C98.8243 51.6074 99.1564 51.8422 98.9806 52.1552C98.8438 52.3899 98.6289 52.7225 98.1992 52.566C97.7694 52.4095 97.1053 52.1356 96.9881 52.7029C96.8513 53.3485 97.6327 53.5246 98.1015 53.5441C98.922 53.5833 99.3322 53.955 99.4298 54.6788C99.5471 55.4613 99.0392 55.8526 98.3945 56.1069C98.0038 56.3025 97.6327 56.4395 97.2811 56.3612Z" fill="white"/>
<path d="M52.7037 56.3808C51.4144 56.3612 50.3987 55.6178 50.047 54.581C49.754 53.7202 50.1838 52.4486 50.9652 51.9204C51.8833 51.314 52.86 51.4705 53.8367 51.7248C53.993 51.7639 54.2665 51.9595 54.0516 52.1356C53.7586 52.3899 53.7 52.9377 53.0163 52.7225C51.9419 52.4095 51.2582 53.0355 51.3754 54.0528C51.473 54.8353 52.2154 55.3831 52.8991 55.0114C53.6804 54.6006 53.8953 55.2461 54.0321 55.5983C54.2469 56.1265 53.6023 56.0873 53.3093 56.2243C53.0749 56.3417 52.8014 56.3612 52.7037 56.3808Z" fill="white"/>
<path d="M73.8398 52.5464C73.8398 53.5637 73.8008 54.5614 73.8594 55.5787C73.8789 56.1265 73.625 56.2243 73.1757 56.2047C72.7459 56.1852 72.4334 56.2047 72.4529 55.5983C72.492 53.5246 72.4724 51.4313 72.4529 49.3576C72.4529 48.8099 72.6678 48.7316 73.1366 48.7121C73.664 48.6925 73.8984 48.8294 73.8594 49.4163C73.8008 50.4727 73.8398 51.5096 73.8398 52.5464Z" fill="white"/>
<path d="M36.373 52.7225C36.373 53.7007 36.3535 54.6788 36.3925 55.6374C36.4121 56.2048 36.2558 56.4395 35.6502 56.4199C35.1033 56.4004 34.9275 56.2439 34.947 55.6961C34.9861 53.6811 34.9861 51.6661 34.947 49.6707C34.9275 49.0251 35.2205 48.9664 35.7479 48.9273C36.3925 48.8882 36.3925 49.2403 36.3925 49.7098C36.373 50.7075 36.373 51.7052 36.373 52.7225Z" fill="white"/>
<path d="M14.2015 53.9354C14.2015 53.4464 14.221 52.9573 14.2015 52.4682C14.1624 51.9204 14.2796 51.6465 14.9243 51.6465C15.608 51.6465 15.6275 51.9791 15.6275 52.4878C15.608 53.5833 15.5884 54.6984 15.6275 55.7939C15.647 56.4004 15.3345 56.3808 14.9047 56.3808C14.4554 56.3808 14.1624 56.3417 14.182 55.7744C14.221 55.1679 14.2015 54.5614 14.2015 53.9354Z" fill="white"/>
<path d="M23.031 54.0137C23.031 53.5246 23.0505 53.0355 23.031 52.5464C23.0115 52.0182 22.9919 51.627 23.7538 51.6465C24.457 51.6661 24.4375 51.9987 24.4375 52.4878C24.4179 53.505 24.4179 54.5028 24.4375 55.52C24.457 56.0482 24.457 56.4199 23.6952 56.4199C22.8747 56.4199 23.0115 55.9504 23.0115 55.4809C23.0115 54.9918 23.031 54.5028 23.031 54.0137Z" fill="white"/>
<path d="M88.725 53.955C88.725 54.4832 88.7055 54.9918 88.725 55.52C88.7445 56.0091 88.6273 56.2047 88.0804 56.2243C87.5334 56.2243 87.4357 55.9895 87.4553 55.52C87.4748 54.4441 87.4943 53.3681 87.4553 52.2921C87.4357 51.7248 87.6702 51.6661 88.139 51.6661C88.6273 51.6661 88.7445 51.8617 88.725 52.3117C88.7055 52.8399 88.725 53.4072 88.725 53.955Z" fill="white"/>
<path d="M56.2003 48.8686C55.2627 48.7708 55.0087 49.1816 55.0478 50.1011C55.126 52.1161 55.0674 54.1311 55.0478 56.1265C54.6962 55.4222 54.9111 54.6788 54.8915 53.955C54.8525 52.566 54.872 51.1575 54.8915 49.7685C54.8915 48.5947 54.9501 48.5751 56.2003 48.8686Z" fill="white"/>
<path d="M23.2459 45.3277C34.7788 45.3277 44.1281 35.9646 44.1281 24.4147C44.1281 12.8648 34.7788 3.50177 23.2459 3.50177C11.7129 3.50177 2.36365 12.8648 2.36365 24.4147C2.36365 35.9646 11.7129 45.3277 23.2459 45.3277Z" fill="white"/>
<path d="M27.6411 35.2527C25.7462 35.8787 23.7928 36.133 21.8198 35.9961C20.9212 35.9374 20.0227 35.5657 19.1632 35.2331C16.3697 34.1571 14.221 32.2791 12.8926 29.5598C11.0564 25.8233 11.2908 22.165 13.2638 18.5654C14.5335 16.2765 16.4479 14.7114 18.8311 13.7137C23.4607 11.8943 27.6606 12.716 31.2745 16.0222C34.2046 18.7023 35.2204 22.1258 34.7125 26.0971C34.2632 29.5403 32.5051 32.0443 29.8289 34.0398C29.1647 34.5288 28.3834 34.8614 27.6411 35.2527ZM22.23 18.8392C22.23 17.5872 21.6245 16.5308 21.1947 15.4157C21.0189 14.9462 20.7259 14.9462 20.2766 15.1027C17.073 16.1787 15.0023 18.3502 13.9084 21.5389C13.6154 22.4193 13.967 22.7714 14.6898 22.9279C15.3149 23.0453 15.8618 23.3192 16.4283 23.5539C17.2683 23.8865 17.7567 24.3952 17.5223 25.4124C17.3855 26.058 17.4832 26.8014 18.0692 27.1927C19.378 28.0535 20.1594 28.9729 19.4757 30.714C19.1241 31.5944 20.1008 32.3378 20.9212 31.9856C21.898 31.5748 23.363 29.1881 23.0896 28.1904C22.7379 26.8601 22.9919 25.6863 23.6756 24.5517C24.0077 24.0039 24.0077 23.4366 23.5193 22.9475C23.0505 22.4584 22.484 22.4389 21.898 22.6932C21.4877 22.8888 21.0971 23.1236 20.6868 23.2996C20.1203 23.5539 19.671 23.2605 19.2804 22.8888C18.9873 22.6149 18.792 22.2823 18.9483 21.852C19.1632 21.3042 19.5734 21.2064 20.1203 21.1868C21.4096 21.1086 22.2691 20.1108 22.23 18.8392ZM28.7155 32.0835C28.8327 32.0443 28.9499 32.0443 29.0085 32.0052C31.3917 30.5967 33.4037 25.9015 32.7981 23.2409C32.7395 22.9866 32.7395 22.6932 32.4074 22.6345C31.2745 22.3997 30.1024 22.0867 28.9499 22.4584C28.0122 22.7714 27.6606 23.5931 27.602 24.5321C27.5629 25.3733 28.0708 25.7255 28.8131 25.9015C29.7508 26.1167 30.0047 26.7819 29.868 27.6818C29.7508 28.386 29.4578 29.0316 29.1647 29.6772C28.8717 30.4206 28.481 31.164 28.7155 32.0835ZM29.614 17.2938C29.6336 17.2155 29.6531 17.1373 29.6726 17.0394C29.0475 16.6091 28.4615 16.1004 27.7778 15.7874C25.2188 14.6332 25.629 14.5549 24.203 16.9808C23.7733 17.7241 23.9491 18.3893 24.6328 18.9566C25.336 19.524 25.7658 18.8784 26.1174 18.5458C27.0941 17.6459 28.149 16.9612 29.614 17.2938Z" fill="#275D9F"/>
<path d="M22.23 18.8392C22.2691 20.1108 21.4096 21.1086 20.1399 21.1673C19.5929 21.1868 19.1827 21.3042 18.9678 21.8324C18.792 22.2628 19.0069 22.5954 19.2999 22.8692C19.6906 23.2409 20.1399 23.5148 20.7064 23.2801C21.1166 23.104 21.5073 22.8497 21.9175 22.6736C22.5035 22.3997 23.0505 22.4389 23.5388 22.9279C24.0077 23.417 24.0272 23.9843 23.6951 24.5321C23.0114 25.6668 22.7575 26.8406 23.1091 28.1708C23.363 29.1686 21.9175 31.5553 20.9408 31.9661C20.1203 32.3182 19.1436 31.5748 19.4952 30.6945C20.1789 28.9534 19.3976 28.0339 18.0888 27.1731C17.5027 26.7819 17.4051 26.0385 17.5418 25.3929C17.7567 24.3756 17.2879 23.8474 16.4479 23.5344C15.8814 23.3192 15.3344 23.0453 14.7093 22.9084C13.9865 22.7519 13.6349 22.4193 13.9279 21.5194C15.0023 18.311 17.073 16.1591 20.2961 15.0831C20.7454 14.9266 21.0384 14.9266 21.2143 15.3961C21.6245 16.5308 22.23 17.5872 22.23 18.8392Z" fill="#BC3B50"/>
<path d="M28.7154 32.0834C28.481 31.1835 28.8522 30.4206 29.2038 29.6772C29.4968 29.0316 29.7898 28.386 29.907 27.6817C30.0438 26.7818 29.7898 26.1167 28.8522 25.9015C28.1099 25.7254 27.5824 25.3537 27.641 24.5321C27.6996 23.5931 28.0317 22.7714 28.9889 22.4584C30.1414 22.0671 31.294 22.3997 32.4465 22.6345C32.7786 22.6932 32.7786 23.0062 32.8372 23.2409C33.4427 25.9015 31.4307 30.5966 29.0475 32.0052C28.9498 32.0443 28.8326 32.0443 28.7154 32.0834Z" fill="#8DC63F"/>
<path d="M29.614 17.2938C28.149 16.9612 27.1136 17.6459 26.1174 18.5458C25.7658 18.8588 25.336 19.524 24.6328 18.9566C23.9491 18.3893 23.7733 17.7242 24.203 16.9808C25.6486 14.5549 25.2383 14.6332 27.7778 15.7874C28.4615 16.1004 29.0475 16.6091 29.6726 17.0395C29.6531 17.1373 29.6336 17.2155 29.614 17.2938Z" fill="#FBB040"/>
<path d="M58.2319 16.5895C58.2319 13.7333 58.2319 11.0727 58.2319 8.41212C58.2319 8.0013 58.4077 7.74698 58.7398 7.53179C63.0765 4.67557 67.667 3.69742 72.6874 5.55591C75.5589 6.63188 77.8054 8.45125 79.3486 11.1118C80.3253 12.7943 80.7941 14.6332 80.9699 16.5699C81.2239 19.6218 81.0871 22.6932 81.1067 25.745C81.1262 31.927 81.1067 38.1285 81.1262 44.3104C81.1262 45.1125 80.9308 45.3668 80.0909 45.3668C77.5123 45.3081 74.9533 45.3277 72.3748 45.3668C71.5739 45.3864 71.3395 45.1712 71.3395 44.3495C71.3786 38.0698 71.4372 31.7705 71.32 25.4907C71.2809 22.7519 71.3395 19.9543 70.2065 17.3329C69.3274 15.3179 67.8233 14.0854 65.6355 13.8311C62.9397 13.5377 60.537 14.0854 58.7008 16.2569C58.6226 16.3547 58.4859 16.3939 58.2319 16.5895Z" fill="white"/>
<path d="M42.8975 19.8957C42.4872 19.8761 40.6315 16.4917 40.4557 15.9439C40.0455 14.6527 36.959 11.9922 39.8696 10.4662C41.2761 9.11639 42.9561 8.09911 44.343 6.7297C45.4174 5.67329 46.609 5.55591 47.9764 5.59504C50.2228 5.65373 52.4693 5.63416 54.7157 5.6146C55.3213 5.6146 55.5753 5.75154 55.5753 6.41669C55.5557 19.387 55.5557 32.3378 55.5362 45.3081C52.3326 45.3277 49.1485 45.3277 45.9448 45.3472L45.9058 45.3081C45.9058 45.2494 45.9253 45.1712 45.9253 45.1125C45.9253 36.4265 45.9448 27.7405 45.9448 19.0544C45.9448 18.8001 45.9839 18.5262 45.7495 18.3306C45.7299 17.9002 45.7299 17.5481 45.2025 18.0372C44.4602 18.6827 43.6593 19.2696 42.8975 19.8957Z" fill="white"/>
</svg>
